<?xml version="1.0" standalone="no"?>
<!DOCTYPE svg PUBLIC "-//W3C//DTD SVG 20010904//EN"
 "http://www.w3.org/TR/2001/REC-SVG-20010904/DTD/svg10.dtd">
<svg version="1.0" xmlns="http://www.w3.org/2000/svg"
 width="64.000000pt" height="64.000000pt" viewBox="0 0 64.000000 64.000000"
 preserveAspectRatio="xMidYMid meet">

<g transform="translate(0.000000,64.000000) scale(0.100000,-0.100000)"
fill="#000000" stroke="none">
<path d="M100 320 l0 -220 220 0 220 0 0 220 0 220 -220 0 -220 0 0 -220z
m400 0 l0 -180 -180 0 -180 0 0 180 0 180 180 0 180 0 0 -180z"/>
<path d="M300 380 l0 -40 -40 0 c-33 0 -40 -3 -40 -20 0 -17 7 -20 40 -20 l40
0 0 -40 c0 -33 3 -40 20 -40 17 0 20 7 20 40 l0 40 40 0 c33 0 40 3 40 20 0
17 -7 20 -40 20 l-40 0 0 40 c0 33 -3 40 -20 40 -17 0 -20 -7 -20 -40z"/>
</g>
</svg>
