<?xml version="1.0" standalone="no"?>
<!DOCTYPE svg PUBLIC "-//W3C//DTD SVG 20010904//EN"
 "http://www.w3.org/TR/2001/REC-SVG-20010904/DTD/svg10.dtd">
<svg version="1.0" xmlns="http://www.w3.org/2000/svg"
 width="50.000000pt" height="50.000000pt" viewBox="0 0 50.000000 50.000000"
 preserveAspectRatio="xMidYMid meet">

<g transform="translate(0.000000,50.000000) scale(0.100000,-0.100000)"
fill="#000000" stroke="none">
<path d="M187 474 c-4 -4 -7 -16 -7 -26 0 -15 -8 -18 -55 -18 -30 0 -55 -4
-55 -10 0 -5 4 -10 10 -10 6 0 11 -76 12 -192 l3 -193 155 0 155 0 3 193 c1
116 6 192 12 192 6 0 10 5 10 10 0 6 -24 10 -54 10 -49 0 -55 2 -58 23 -3 20
-9 22 -63 25 -34 2 -64 0 -68 -4z m113 -29 c0 -11 -12 -15 -50 -15 -38 0 -50
4 -50 15 0 11 12 15 50 15 38 0 50 -4 50 -15z m90 -220 l0 -185 -140 0 -140 0
0 185 0 185 140 0 140 0 0 -185z"/>
<path d="M170 293 c0 -4 14 -22 32 -40 l32 -33 -34 -35 c-44 -45 -30 -59 15
-15 l35 34 35 -34 c19 -18 38 -30 42 -27 3 4 -9 23 -27 42 l-34 35 34 35 c44
45 30 59 -15 15 l-35 -34 -33 32 c-32 31 -47 39 -47 25z"/>
</g>
</svg>
