<?xml version="1.0" standalone="no"?>
<!DOCTYPE svg PUBLIC "-//W3C//DTD SVG 20010904//EN"
 "http://www.w3.org/TR/2001/REC-SVG-20010904/DTD/svg10.dtd">
<svg version="1.0" xmlns="http://www.w3.org/2000/svg"
 width="72.000000pt" height="72.000000pt" viewBox="0 0 72.000000 72.000000"
 preserveAspectRatio="xMidYMid meet">

<g transform="translate(0.000000,72.000000) scale(0.100000,-0.100000)"
fill="#000000" stroke="none">
<path d="M100 360 l0 -330 216 0 c191 0 215 2 204 15 -10 12 -46 15 -201 15
l-189 0 0 300 0 300 135 0 135 0 0 -90 0 -90 95 0 95 0 0 -90 c0 -73 3 -90 15
-90 12 0 15 18 15 98 l0 97 -98 98 -97 97 -163 0 -162 0 0 -330z m460 147 c0
-4 -28 -7 -62 -5 l-63 3 -3 70 -3 70 66 -65 c36 -35 65 -68 65 -73z"/>
<path d="M229 371 c-20 -16 -24 -29 -24 -70 0 -60 19 -84 61 -79 l29 4 -27 12
c-49 20 -52 98 -5 120 15 7 25 17 22 23 -9 14 -31 11 -56 -10z"/>
<path d="M332 378 c-20 -20 -14 -56 14 -82 30 -27 27 -56 -6 -56 -11 0 -20 -4
-20 -10 0 -19 59 -11 70 9 16 30 13 41 -21 72 -32 30 -31 49 2 49 10 0 19 7
19 15 0 18 -41 20 -58 3z"/>
<path d="M412 378 c3 -7 11 -44 19 -82 12 -60 29 -89 45 -73 3 3 12 34 20 68
8 35 17 72 20 82 3 11 0 17 -10 17 -17 0 -22 -14 -32 -85 -8 -55 -8 -55 -24
28 -8 40 -16 57 -27 57 -8 0 -13 -6 -11 -12z"/>
<path d="M548 208 c-3 -63 -3 -63 -35 -66 l-33 -3 58 -70 57 -69 48 53 c70 77
74 87 37 87 l-30 0 0 65 0 65 -50 0 -49 0 -3 -62z m72 -28 c0 -47 3 -60 15
-60 21 0 18 -10 -11 -45 l-25 -30 -24 28 c-29 32 -32 47 -10 47 12 0 15 13 15
60 0 53 2 60 20 60 18 0 20 -7 20 -60z"/>
</g>
</svg>
