<?xml version="1.0" standalone="no"?>
<!DOCTYPE svg PUBLIC "-//W3C//DTD SVG 20010904//EN"
 "http://www.w3.org/TR/2001/REC-SVG-20010904/DTD/svg10.dtd">
<svg version="1.0" xmlns="http://www.w3.org/2000/svg"
 width="100.000000pt" height="100.000000pt" viewBox="0 0 100.000000 100.000000"
 preserveAspectRatio="xMidYMid meet">

<g transform="translate(0.000000,100.000000) scale(0.100000,-0.100000)"
fill="#000000" stroke="none">
<path d="M140 500 l0 -460 290 0 c283 0 290 0 290 20 0 20 -7 20 -270 20
l-270 0 0 420 0 420 190 0 190 0 0 -130 0 -130 130 0 130 0 0 -101 c0 -86 3
-105 20 -126 l20 -26 0 139 0 139 -138 138 -137 137 -223 0 -222 0 0 -460z
m560 295 l95 -95 -98 0 -97 0 0 95 c0 52 1 95 3 95 1 0 45 -43 97 -95z"/>
<path d="M315 516 c-68 -68 -29 -224 54 -214 33 4 35 31 2 33 -34 3 -51 31
-51 87 0 53 24 88 60 88 11 0 20 7 20 15 0 25 -57 19 -85 -9z"/>
<path d="M461 521 c-32 -32 -27 -68 14 -105 19 -18 35 -42 35 -54 0 -23 -28
-36 -55 -26 -13 5 -16 2 -13 -12 5 -28 61 -31 87 -5 32 32 27 71 -14 111 -44
43 -45 76 -2 73 22 -1 28 2 25 15 -5 26 -53 27 -77 3z"/>
<path d="M573 518 c3 -13 16 -67 28 -120 20 -86 25 -98 44 -98 19 0 24 12 44
103 12 56 25 110 27 120 4 12 0 17 -15 17 -22 0 -24 -6 -42 -110 l-13 -75 -18
90 c-9 50 -17 91 -18 93 0 1 -9 2 -21 2 -17 0 -20 -5 -16 -22z"/>
<path d="M741 275 l-82 -95 51 0 50 0 0 -90 0 -90 70 0 70 0 0 90 0 90 50 0
51 0 -82 95 c-44 52 -84 95 -89 95 -5 0 -45 -43 -89 -95z m137 -13 l35 -42
-27 0 -26 0 0 -90 0 -90 -30 0 -30 0 0 89 c0 88 -1 90 -25 93 l-24 3 36 43
c19 24 40 41 46 39 6 -2 26 -22 45 -45z"/>
</g>
</svg>
